Coordinates
version=1
nRows=17
nColumns=34
inDegrees=yes

Units are S.I. units (second, meters, Newtons, ...)
If the header above contains a line with 'inDegrees', this indicates whether rotational values are in degrees (yes) or radians (no).

endheader
time	pelvis_tilt	pelvis_list	pelvis_rotation	pelvis_tx	pelvis_ty	pelvis_tz	hip_flexion_r	hip_adduction_r	hip_rotation_r	knee_angle_r	ankle_angle_r	subtalar_angle_r	mtp_angle_r	hip_flexion_l	hip_adduction_l	hip_rotation_l	knee_angle_l	ankle_angle_l	subtalar_angle_l	mtp_angle_l	lumbar_extension	lumbar_bending	lumbar_rotation	arm_flex_r	arm_add_r	arm_rot_r	elbow_flex_r	pro_sup_r	arm_flex_l	arm_add_l	arm_rot_l	elbow_flex_l	pro_sup_l
      3.85000000	     -2.28817715	      9.86126976	    -77.86374339	      0.79958004	      0.88745847	     -0.36306239	     31.64418701	    -15.33958882	     17.72529716	     10.97569333	    -21.33490668	    -35.00000000	      0.00000000	     12.34446934	      5.73082101	    -20.23283584	      7.39764773	     11.45573123	     22.67435933	      0.00000000	     -4.96541732	    -23.06994929	      5.19086238	     17.67642056	     27.11265530	     65.27997823	     55.61631241	     87.01811259	     26.44103830	    -24.74305169	    572.95779513	      0.00000000	    119.74817918
      3.86666670	     -3.16767456	      9.75045278	    -78.34224314	      0.79975531	      0.89053566	     -0.36463135	     32.71189027	    -12.92613118	     14.91577460	     11.31424619	    -21.76950651	    -35.00000000	      0.00000000	     11.68048496	      5.11895523	    -19.36129717	      6.37166916	     10.75495294	     20.95656623	      0.00000000	     -5.02174146	    -22.32491774	      5.85342874	     17.40049382	     26.60402657	     65.07180185	     55.34908845	     86.86247624	     26.63918456	    -24.29006497	    572.95779513	      0.00000000	    119.74817918
      3.88333330	     -3.79580200	      9.65444242	    -78.75670629	      0.80044430	      0.89208166	     -0.36559885	     33.64073464	    -10.97232046	     12.16827819	     11.71535847	    -21.88567143	    -35.00000000	      0.00000000	     11.17733274	      4.66196064	    -18.63238216	      5.82764486	     10.05531586	     19.17985271	      0.00000000	     -5.11786960	    -21.71867747	      6.46573384	     17.21464853	     25.59147238	     64.73592743	     55.79485662	     86.65221146	     26.74049279	    -23.69706217	    572.95779513	      0.00000000	    119.74817918
      3.90000000	     -4.18311982	      9.53537442	    -79.12443302	      0.80215109	      0.89477272	     -0.36690773	     34.18683647	     -9.59323888	      9.75866267	     11.89287095	    -22.06546751	    -35.00000000	      0.00000000	     10.70209921	      4.35952078	    -18.22583636	      5.45436733	      9.34988099	     17.93607825	      0.00000000	     -5.28015750	    -21.34116538	      6.95439268	     17.34720846	     24.29633129	     64.26299187	     56.69112803	     86.39155821	     26.90672778	    -23.12328246	    572.95779513	      0.00000000	    119.74817918
      3.91666670	     -4.26607482	      9.27804404	    -79.47480800	      0.80536663	      0.89638716	     -0.36839043	     34.36748486	     -8.80665535	      7.81538636	     12.03893163	    -22.31776418	    -35.00000000	      0.00000000	     10.16634037	      4.32686424	    -18.09434736	      5.31649988	      8.83059602	     17.17334535	      0.00000000	     -5.77579326	    -21.24321920	      7.73300331	     17.28707150	     23.33961230	     63.90150356	     54.94124129	     86.12764719	     27.47857410	    -22.25357580	    572.95779513	      0.00000000	    119.74817918
      3.93333330	     -4.24840103	      9.01968446	    -79.74750313	      0.80917182	      0.89682036	     -0.36954684	     34.29568789	     -8.39313015	      6.22406730	     12.04622794	    -22.66136901	    -35.00000000	      0.00000000	      9.66693470	      4.49582687	    -17.88676157	      5.26131075	      8.26835591	     16.47711110	      0.00000000	     -6.30021681	    -21.10588887	      8.45706226	     17.24574747	     22.66230034	     63.65412797	     53.02557575	     85.81997917	     27.99933293	    -21.28578912	    572.95779513	      0.00000000	    119.74817918
      3.95000000	     -4.30232763	      9.01323320	    -79.93595859	      0.80974042	      0.89680322	     -0.36889371	     34.31657778	     -8.07000291	      4.93963437	     12.00348498	    -22.79889898	    -35.00000000	      0.00000000	      9.50260234	      4.66779117	    -17.89810058	      5.35752646	      7.80792380	     16.29115355	      0.00000000	     -6.38143057	    -20.76539054	      8.71582892	     17.74546688	     22.50207577	     63.52302461	     53.12585807	     85.70894371	     27.85169387	    -20.75218713	    572.95779513	      0.00000000	    119.74817918
      3.96666670	     -4.42343989	      8.93012644	    -80.03895700	      0.80412780	      0.89722298	     -0.36608961	     34.06139478	     -7.67079300	      3.78256671	     11.88343030	    -22.68536600	    -35.00000000	      0.00000000	      9.32083822	      4.64568754	    -17.82483810	      5.59754245	      7.52437631	     15.90453755	      0.00000000	     -6.53048014	    -20.66174228	      9.37028755	     18.44127877	     22.97701924	     63.52687703	     53.11514809	     85.56284433	     28.19587911	    -20.39256006	    572.95779513	      0.00000000	    119.74817918
      3.98333330	     -4.51333685	      8.75137350	    -80.09231521	      0.79572826	      0.89772034	     -0.36262850	     33.62332863	     -7.23966732	      2.99118806	     11.90772831	    -22.31187283	    -35.00000000	      0.00000000	      9.06157296	      4.46541284	    -17.82547942	      5.90722000	      7.31110432	     15.47353900	      0.00000000	     -6.85668692	    -20.73043015	     10.35715067	     18.95517707	     23.68695940	     63.77423748	     52.36079665	     85.36190189	     29.00909198	    -20.27663750	    572.95779513	      0.00000000	    119.74817918
      4.00000000	     -4.56694152	      8.82895185	    -80.15205028	      0.79025039	      0.89774407	     -0.35991917	     33.35580481	     -6.88826918	      2.42312414	     12.02290353	    -22.09301931	    -35.00000000	      0.00000000	      8.92223843	      4.27606358	    -18.01124632	      5.97460216	      7.30165894	     15.31249514	      0.00000000	     -6.75848493	    -20.78420984	     10.63230538	     19.31584028	     23.87649259	     63.74166306	     52.50515797	     85.32762324	     29.08901640	    -20.79893324	    572.95779513	      0.00000000	    119.74817918
      4.01666670	     -4.67733782	      8.65254740	    -79.92083737	      0.78906036	      0.89762581	     -0.35967041	     32.80851569	     -6.63176070	      1.84347453	     12.29466959	    -21.70564208	    -35.00000000	      0.00000000	      8.76078135	      3.92892335	    -18.27102085	      6.42576527	      7.63087255	     15.06089372	      0.00000000	     -7.25960228	    -20.50254572	     10.60365580	     19.84954733	     22.15503082	     63.98331422	     53.63643897	     85.03085206	     29.49407075	    -20.84600080	    572.95779513	      0.00000000	    119.74817918
      4.03333330	     -4.68656145	      8.73399490	    -79.82714180	      0.78888127	      0.89659286	     -0.36002730	     32.60951627	     -6.47296272	      1.39770277	     12.60844780	    -21.57941748	    -35.00000000	      0.00000000	      8.76363552	      3.74819013	    -18.61579582	      6.64541683	      7.78914254	     14.95698071	      0.00000000	     -7.41501560	    -20.07549961	     10.24108643	     19.72226844	     19.13984153	     63.54673632	     54.47365171	     84.68271407	     29.53009973	    -20.86044498	    572.95779513	      0.00000000	    119.74817918
      4.05000000	     -4.69431134	      8.85273713	    -79.77098133	      0.78817817	      0.89593849	     -0.35996692	     32.52295530	     -6.31367644	      0.91961781	     12.89444894	    -21.55054229	    -35.00000000	      0.00000000	      8.82338738	      3.55770448	    -18.95209935	      6.90054421	      7.84929203	     14.81692736	      0.00000000	     -7.58127796	    -19.32790475	      9.63913852	     19.19814105	     15.19749484	     62.75070430	     54.13899809	     84.46056741	     29.34304738	    -20.89897319	    572.89399679	      0.00000000	    119.74817918
      4.06666670	     -4.52236834	      8.91719551	    -79.72057397	      0.78686934	      0.89562296	     -0.35904500	     32.43212225	     -6.39832449	      0.43111324	     13.18645799	    -21.89921091	    -35.00000000	      0.00000000	      8.80256945	      3.58630336	    -19.28289508	      7.18879150	      7.97229243	     14.58995516	      0.00000000	     -7.88494814	    -18.82207004	      9.45590617	     17.84812166	     10.50337167	     59.90632767	     53.92505281	     83.80396239	     29.67010566	    -20.74072006	    572.28774218	      0.00000000	    119.74817918
      4.08333330	     -4.39147105	      8.91614592	    -79.70102201	      0.78450536	      0.89565468	     -0.35733596	     32.10062631	     -6.50368244	     -0.10040044	     13.04524629	    -22.38278101	    -35.00000000	      0.00000000	      8.58886621	      3.64299717	    -19.45521063	      7.25877200	      7.87284559	     14.24966036	      0.00000000	     -8.16723641	    -18.15717341	      9.00643077	     16.98368984	      6.95181828	     57.87852625	     51.53683981	     83.46519511	     29.47719337	    -20.87326834	    571.64652475	      0.00000000	    119.74817918
      4.10000000	     -4.40154636	      8.87848373	    -79.66507252	      0.78148625	      0.89346181	     -0.35443249	     31.66691000	     -6.52571631	     -0.53496083	     12.72345220	    -22.92298418	    -35.00000000	      0.00000000	      8.34828626	      3.59385024	    -19.56153122	      7.44177092	      7.80795798	     14.14588575	      0.00000000	     -8.29360455	    -17.59785118	      9.17518717	     16.35747704	      5.15271416	     56.14144017	     47.88655971	     83.19624325	     29.53330636	    -20.85074880	    571.11430842	      0.00000000	    119.74817918
      4.11666670	     -4.23786839	      9.08870089	    -79.63051398	      0.77821853	      0.89094312	     -0.35124804	     31.60092914	     -6.80548323	     -0.77937229	     12.61570568	    -23.31772555	    -35.00000000	      0.00000000	      8.34295885	      3.81914072	    -19.84668609	      7.71587750	      7.85469945	     14.25560035	      0.00000000	     -8.14390820	    -17.54685249	      9.34412396	     15.92016804	      6.14698990	     53.60628763	     43.39077462	     82.74926551	     29.40515899	    -21.05661194	    569.57709926	      0.00000000	    119.74817918
